<?xml version="1.0" encoding="UTF-8" standalone="no"?>
<!-- Generator: Adobe Illustrator 27.0.0, SVG Export Plug-In . SVG Version: 6.00 Build 0)  -->

<svg
   version="1.1"
   id="Layer_1"
   x="0px"
   y="0px"
   viewBox="0 0 792 612"
   style="enable-background:new 0 0 792 612;"
   xml:space="preserve"
   sodipodi:docname="lablogo_dark.svg"
   inkscape:version="1.4.2 (f4327f4, 2025-05-13)"
   xmlns:inkscape="http://www.inkscape.org/namespaces/inkscape"
   xmlns:sodipodi="http://sodipodi.sourceforge.net/DTD/sodipodi-0.dtd"
   xmlns="http://www.w3.org/2000/svg"
   xmlns:svg="http://www.w3.org/2000/svg"><defs
   id="defs96" /><sodipodi:namedview
   id="namedview96"
   pagecolor="#505050"
   bordercolor="#eeeeee"
   borderopacity="1"
   inkscape:showpageshadow="0"
   inkscape:pageopacity="0"
   inkscape:pagecheckerboard="0"
   inkscape:deskcolor="#505050"
   inkscape:zoom="0.89312671"
   inkscape:cx="-213.2956"
   inkscape:cy="164.03048"
   inkscape:window-width="3440"
   inkscape:window-height="1351"
   inkscape:window-x="-9"
   inkscape:window-y="69"
   inkscape:window-maximized="1"
   inkscape:current-layer="g96" />
<style
   type="text/css"
   id="style1">
	.st0{fill:#FFFFFF;}
	.st1{fill:#00236E;}
	.st2{fill:#00246F;}
	.st3{fill:#D21C37;}
</style>

<g
   id="g96"
   transform="matrix(1.7719673,0,0,1.7719673,-309.29979,-388.86458)">
	<g
   id="g59"
   style="fill:#77efac;fill-opacity:1">
		<g
   id="g55"
   style="fill:#77efac;fill-opacity:1">
			<path
   class="st1"
   d="m 341,398.7 h 13.6 v 2.4 h -16.4 v -28.3 h 2.8 z"
   id="path48"
   style="fill:#77efac;fill-opacity:1" />
			<path
   class="st1"
   d="m 357.2,386.9 c 0.1,-4.5 2.9,-6.8 8.2,-6.8 5,0 7.5,2.1 7.5,6.1 v 11.5 c 0,1.2 0.3,1.7 1.1,1.7 0.3,0 0.6,0 1.2,-0.3 v 2 c -0.9,0.2 -1.3,0.3 -1.9,0.3 -1.4,0 -2.3,-0.6 -2.8,-1.7 -0.2,-0.5 -0.2,-0.6 -0.2,-1.7 -1.7,2.4 -4.2,3.6 -7.4,3.6 -4.2,0 -6.7,-2.2 -6.7,-5.9 0,-1.8 0.7,-3.4 1.9,-4.4 1,-0.8 2.3,-1.4 4.5,-1.7 l 6.1,-1 c 1.5,-0.3 1.6,-0.3 1.6,-2 0,-3.1 -1.5,-4.3 -5.1,-4.3 -3.6,0 -5.2,1.4 -5.3,4.5 h -2.7 z m 5.9,4.9 c -2.8,0.5 -4.2,1.7 -4.2,3.9 0,2.4 1.7,3.9 4.5,3.9 4.2,0 7,-2.7 7,-6.7 v -2.3 z"
   id="path49"
   style="fill:#77efac;fill-opacity:1" />
			<path
   class="st1"
   d="m 392.3,401.1 -9.2,-24.5 c 0.2,4.8 0.3,10.3 0.3,15.2 v 9.3 h -2.7 v -28.3 h 3.6 l 9.5,25.2 9.5,-25.2 h 3.4 v 28.3 H 404 v -7.5 c 0,-6.7 0.1,-13.4 0.2,-16.7 l -9.2,24.2 z"
   id="path50"
   style="fill:#77efac;fill-opacity:1" />
			<path
   class="st1"
   d="m 412.8,386.9 c 0.1,-4.5 2.9,-6.8 8.2,-6.8 5,0 7.5,2.1 7.5,6.1 v 11.5 c 0,1.2 0.3,1.7 1.1,1.7 0.3,0 0.6,0 1.2,-0.3 v 2 c -0.9,0.2 -1.3,0.3 -1.9,0.3 -1.4,0 -2.3,-0.6 -2.8,-1.7 -0.2,-0.5 -0.2,-0.6 -0.2,-1.7 -1.7,2.4 -4.2,3.6 -7.4,3.6 -4.2,0 -6.7,-2.2 -6.7,-5.9 0,-1.8 0.7,-3.4 1.9,-4.4 1,-0.8 2.3,-1.4 4.5,-1.7 l 6.1,-1 c 1.5,-0.3 1.6,-0.3 1.6,-2 0,-3.1 -1.5,-4.3 -5.1,-4.3 -3.6,0 -5.2,1.4 -5.3,4.5 h -2.7 z m 5.9,4.9 c -2.8,0.5 -4.2,1.7 -4.2,3.9 0,2.4 1.7,3.9 4.5,3.9 4.2,0 7,-2.7 7,-6.7 v -2.3 z"
   id="path51"
   style="fill:#77efac;fill-opacity:1" />
			<path
   class="st1"
   d="m 437.5,380.6 -0.1,3.7 c 1.5,-2.9 3.1,-4 5.8,-4 0.3,0 0.5,0 0.8,0 v 2.5 c -0.3,0 -0.5,0 -0.6,0 -1.9,0 -3.5,0.9 -4.6,2.5 -1,1.3 -1.4,2.8 -1.4,4.9 V 401 H 435 v -20.5 h 2.5 z"
   id="path52"
   style="fill:#77efac;fill-opacity:1" />
			<path
   class="st1"
   d="m 461,387 c -0.5,-3 -2.6,-4.7 -5.7,-4.7 -4.1,0 -6.7,3.2 -6.7,8.4 0,5.3 2.6,8.7 6.8,8.7 3.2,0 5.3,-2 5.8,-5.5 h 2.5 c -0.8,4.9 -3.9,7.7 -8.4,7.7 -5.6,0 -9.2,-4.2 -9.2,-10.7 0,-6.5 3.7,-10.9 9.4,-10.9 4.5,0 7.6,2.7 8.1,6.9 H 461 Z"
   id="path53"
   style="fill:#77efac;fill-opacity:1" />
			<path
   class="st1"
   d="m 468.2,372.8 h 2.5 v 10.4 c 1.5,-2.2 3.6,-3.2 6.4,-3.2 2.4,0 4.5,0.8 5.6,2.3 0.9,1.1 1.3,2.6 1.3,5.1 V 401 h -2.5 v -13.3 c 0,-1.8 -0.3,-2.9 -0.8,-3.8 -0.7,-1.1 -2.2,-1.7 -3.9,-1.7 -3.6,0 -6.1,2.6 -6.1,6.2 v 12.5 h -2.5 z"
   id="path54"
   style="fill:#77efac;fill-opacity:1" />
			<path
   class="st1"
   d="m 491.6,391.3 c 0.2,5.1 2.7,8.1 6.7,8.1 2.9,0 5,-1.6 6,-4.7 h 2.6 c -1.4,4.6 -4.4,7 -8.7,7 -5.6,0 -9.2,-4.1 -9.2,-10.7 0,-6.5 3.6,-10.9 9.1,-10.9 3.9,0 7,2.2 8.1,5.8 0.5,1.7 0.7,3.1 0.7,5.4 z m 12.8,-2.1 c -0.3,-4.4 -2.5,-6.9 -6.1,-6.9 -3.6,0 -5.9,2.5 -6.5,6.9 z"
   id="path55"
   style="fill:#77efac;fill-opacity:1" />
		</g>
		<g
   id="g58"
   style="fill:#77efac;fill-opacity:1">
			<path
   class="st1"
   d="M 523.4,398.7 H 537 v 2.4 h -16.4 v -28.3 h 2.8 z"
   id="path56"
   style="fill:#77efac;fill-opacity:1" />
			<path
   class="st1"
   d="m 540.1,386.9 c 0.1,-4.5 2.9,-6.8 8.2,-6.8 5,0 7.5,2.1 7.5,6.1 v 11.5 c 0,1.2 0.3,1.7 1.1,1.7 0.3,0 0.6,0 1.2,-0.3 v 2 c -0.9,0.2 -1.3,0.3 -1.9,0.3 -1.4,0 -2.3,-0.6 -2.8,-1.7 -0.2,-0.5 -0.2,-0.6 -0.2,-1.7 -1.7,2.4 -4.2,3.6 -7.4,3.6 -4.2,0 -6.7,-2.2 -6.7,-5.9 0,-1.8 0.7,-3.4 1.9,-4.4 1,-0.8 2.3,-1.4 4.5,-1.7 l 6.1,-1 c 1.5,-0.3 1.6,-0.3 1.6,-2 0,-3.1 -1.5,-4.3 -5.1,-4.3 -3.6,0 -5.2,1.4 -5.3,4.5 h -2.7 z m 5.9,4.9 c -2.8,0.5 -4.2,1.7 -4.2,3.9 0,2.4 1.7,3.9 4.5,3.9 4.2,0 7,-2.7 7,-6.7 v -2.3 z"
   id="path57"
   style="fill:#77efac;fill-opacity:1" />
			<path
   class="st1"
   d="m 562.2,372.8 h 2.5 v 11.1 c 1.8,-2.7 3.9,-3.9 6.9,-3.9 5.3,0 8.8,4.1 8.8,10.6 0,6.7 -3.6,11 -9.1,11 -2.9,0 -4.9,-1.1 -6.6,-3.8 v 3.2 h -2.5 z m 2.6,18 c 0,5.5 2.4,8.6 6.6,8.6 4.1,0 6.6,-3.2 6.6,-8.6 0,-5.3 -2.5,-8.5 -6.6,-8.5 -4.1,0 -6.6,3.3 -6.6,8.5 z"
   id="path58"
   style="fill:#77efac;fill-opacity:1" />
		</g>
	</g>
	<g
   id="g95">
		<g
   id="g64"
   style="fill:#77efac;fill-opacity:1">
			<g
   id="g60"
   style="fill:#77efac;fill-opacity:1">
				
					<rect
   x="265.70001"
   y="352.89999"
   transform="matrix(0.3162,-0.9487,0.9487,0.3162,-179.4746,514.9781)"
   class="st2"
   width="3.5999999"
   height="58.200001"
   id="rect59"
   style="fill:#77efac;fill-opacity:1" />
			</g>
			<g
   id="g61"
   style="fill:#77efac;fill-opacity:1">
				
					<rect
   x="302.5"
   y="387.39999"
   transform="matrix(0.7071,-0.7071,0.7071,0.7071,-193.9926,332.4823)"
   class="st2"
   width="3.5999999"
   height="26"
   id="rect60"
   style="fill:#77efac;fill-opacity:1" />
			</g>
			<g
   id="g62"
   style="fill:#77efac;fill-opacity:1">
				
					<rect
   x="250.7"
   y="407.79999"
   transform="matrix(0.7071,-0.7071,0.7071,0.7071,-208.5968,315.6436)"
   class="st2"
   width="52.099998"
   height="3.5999999"
   id="rect61"
   style="fill:#77efac;fill-opacity:1" />
			</g>
			<g
   id="g63"
   style="fill:#77efac;fill-opacity:1">
				<rect
   x="293.29999"
   y="354.39999"
   class="st2"
   width="3.5999999"
   height="36.799999"
   id="rect62"
   style="fill:#77efac;fill-opacity:1" />
			</g>
		</g>
		<g
   id="g66"
   style="fill:#77efac;fill-opacity:1">
			<g
   id="g65"
   style="fill:#77efac;fill-opacity:1">
				<path
   class="st1"
   d="m 295.1,400.5 c -5.1,0 -9.3,-4.2 -9.3,-9.3 0,-5.1 4.2,-9.3 9.3,-9.3 5.1,0 9.3,4.2 9.3,9.3 0,5.1 -4.2,9.3 -9.3,9.3 z"
   id="path64"
   style="fill:#77efac;fill-opacity:1" />
			</g>
		</g>
		<g
   id="g67"
   style="fill:#0f172a;opacity:1;fill-opacity:1">
			<circle
   class="st0"
   cx="295.10001"
   cy="391.20001"
   r="6.8000002"
   id="circle66"
   style="fill:#0f172a;fill-opacity:1" />
		</g>
		<g
   id="g85"
   style="fill:#77efac;fill-opacity:1">
			<g
   id="g84"
   style="fill:#77efac;fill-opacity:1">
				<g
   id="g68"
   style="fill:#77efac;fill-opacity:1">
					<path
   class="st1"
   d="m 258.3,362.6 c -4.5,0 -8.2,-3.7 -8.2,-8.2 0,-4.5 3.7,-8.2 8.2,-8.2 4.5,0 8.2,3.7 8.2,8.2 0,4.5 -3.7,8.2 -8.2,8.2 z m 0,-14.9 c -3.7,0 -6.7,3 -6.7,6.7 0,3.7 3,6.7 6.7,6.7 3.7,0 6.7,-3 6.7,-6.7 0,-3.7 -3,-6.7 -6.7,-6.7 z"
   id="path67"
   style="fill:#77efac;fill-opacity:1" />
				</g>
				<g
   id="g69"
   style="fill:#77efac;fill-opacity:1">
					<path
   class="st1"
   d="m 258.3,381 c -4.5,0 -8.2,-3.7 -8.2,-8.2 0,-4.5 3.7,-8.2 8.2,-8.2 4.5,0 8.2,3.7 8.2,8.2 0,4.5 -3.7,8.2 -8.2,8.2 z m 0,-14.9 c -3.7,0 -6.7,3 -6.7,6.7 0,3.7 3,6.7 6.7,6.7 3.7,0 6.7,-3 6.7,-6.7 0,-3.7 -3,-6.7 -6.7,-6.7 z"
   id="path68"
   style="fill:#77efac;fill-opacity:1" />
				</g>
				<g
   id="g70"
   style="fill:#77efac;fill-opacity:1">
					<path
   class="st1"
   d="m 239.9,399.4 c -4.5,0 -8.2,-3.7 -8.2,-8.2 0,-4.5 3.7,-8.2 8.2,-8.2 4.5,0 8.2,3.7 8.2,8.2 0,4.5 -3.7,8.2 -8.2,8.2 z m 0,-14.9 c -3.7,0 -6.7,3 -6.7,6.7 0,3.7 3,6.7 6.7,6.7 3.7,0 6.7,-3 6.7,-6.7 0,-3.7 -3,-6.7 -6.7,-6.7 z"
   id="path69"
   style="fill:#77efac;fill-opacity:1" />
				</g>
				<g
   id="g71"
   style="fill:#77efac;fill-opacity:1">
					<path
   class="st1"
   d="m 258.3,399.4 c -4.5,0 -8.2,-3.7 -8.2,-8.2 0,-4.5 3.7,-8.2 8.2,-8.2 4.5,0 8.2,3.7 8.2,8.2 0,4.5 -3.7,8.2 -8.2,8.2 z m 0,-14.9 c -3.7,0 -6.7,3 -6.7,6.7 0,3.7 3,6.7 6.7,6.7 3.7,0 6.7,-3 6.7,-6.7 0,-3.7 -3,-6.7 -6.7,-6.7 z"
   id="path70"
   style="fill:#77efac;fill-opacity:1" />
				</g>
				<g
   id="g72"
   style="fill:#77efac;fill-opacity:1">
					<path
   class="st1"
   d="m 276.7,362.6 c -4.5,0 -8.2,-3.7 -8.2,-8.2 0,-4.5 3.7,-8.2 8.2,-8.2 4.5,0 8.2,3.7 8.2,8.2 0,4.5 -3.6,8.2 -8.2,8.2 z m 0,-14.9 c -3.7,0 -6.7,3 -6.7,6.7 0,3.7 3,6.7 6.7,6.7 3.7,0 6.7,-3 6.7,-6.7 0,-3.7 -3,-6.7 -6.7,-6.7 z"
   id="path71"
   style="fill:#77efac;fill-opacity:1" />
				</g>
				<g
   id="g73"
   style="fill:#77efac;fill-opacity:1">
					<path
   class="st1"
   d="m 295.1,381 c -4.5,0 -8.2,-3.7 -8.2,-8.2 0,-4.5 3.7,-8.2 8.2,-8.2 4.5,0 8.2,3.7 8.2,8.2 0,4.5 -3.6,8.2 -8.2,8.2 z m 0,-14.9 c -3.7,0 -6.7,3 -6.7,6.7 0,3.7 3,6.7 6.7,6.7 3.7,0 6.7,-3 6.7,-6.7 0,-3.7 -3,-6.7 -6.7,-6.7 z"
   id="path72"
   style="fill:#77efac;fill-opacity:1" />
				</g>
				<g
   id="g74"
   style="fill:#77efac;fill-opacity:1">
					<path
   class="st1"
   d="m 276.7,399.4 c -4.5,0 -8.2,-3.7 -8.2,-8.2 0,-4.5 3.7,-8.2 8.2,-8.2 4.5,0 8.2,3.7 8.2,8.2 0.1,4.5 -3.6,8.2 -8.2,8.2 z m 0,-14.9 c -3.7,0 -6.7,3 -6.7,6.7 0,3.7 3,6.7 6.7,6.7 3.7,0 6.7,-3 6.7,-6.7 0,-3.7 -3,-6.7 -6.7,-6.7 z"
   id="path73"
   style="fill:#77efac;fill-opacity:1" />
				</g>
				<g
   id="g75"
   style="fill:#77efac;fill-opacity:1">
					<path
   class="st1"
   d="m 239.9,417.9 c -4.5,0 -8.2,-3.7 -8.2,-8.2 0,-4.5 3.7,-8.2 8.2,-8.2 4.5,0 8.2,3.7 8.2,8.2 0,4.5 -3.7,8.2 -8.2,8.2 z m 0,-15 c -3.7,0 -6.7,3 -6.7,6.7 0,3.7 3,6.7 6.7,6.7 3.7,0 6.7,-3 6.7,-6.7 0,-3.7 -3,-6.7 -6.7,-6.7 z"
   id="path74"
   style="fill:#77efac;fill-opacity:1" />
				</g>
				<g
   id="g76"
   style="fill:#77efac;fill-opacity:1">
					<path
   class="st1"
   d="m 258.3,417.9 c -4.5,0 -8.2,-3.7 -8.2,-8.2 0,-4.5 3.7,-8.2 8.2,-8.2 4.5,0 8.2,3.7 8.2,8.2 0,4.5 -3.7,8.2 -8.2,8.2 z m 0,-15 c -3.7,0 -6.7,3 -6.7,6.7 0,3.7 3,6.7 6.7,6.7 3.7,0 6.7,-3 6.7,-6.7 0,-3.7 -3,-6.7 -6.7,-6.7 z"
   id="path75"
   style="fill:#77efac;fill-opacity:1" />
				</g>
				<g
   id="g77"
   style="fill:#77efac;fill-opacity:1">
					<path
   class="st1"
   d="m 276.7,417.9 c -4.5,0 -8.2,-3.7 -8.2,-8.2 0,-4.5 3.7,-8.2 8.2,-8.2 4.5,0 8.2,3.7 8.2,8.2 0,4.5 -3.6,8.2 -8.2,8.2 z m 0,-15 c -3.7,0 -6.7,3 -6.7,6.7 0,3.7 3,6.7 6.7,6.7 3.7,0 6.7,-3 6.7,-6.7 0,-3.7 -3,-6.7 -6.7,-6.7 z"
   id="path76"
   style="fill:#77efac;fill-opacity:1" />
				</g>
				<g
   id="g78"
   style="fill:#77efac;fill-opacity:1">
					<path
   class="st1"
   d="m 295.1,417.9 c -4.5,0 -8.2,-3.7 -8.2,-8.2 0,-4.5 3.7,-8.2 8.2,-8.2 4.5,0 8.2,3.7 8.2,8.2 0,4.5 -3.6,8.2 -8.2,8.2 z m 0,-15 c -3.7,0 -6.7,3 -6.7,6.7 0,3.7 3,6.7 6.7,6.7 3.7,0 6.7,-3 6.7,-6.7 0,-3.7 -3,-6.7 -6.7,-6.7 z"
   id="path77"
   style="fill:#77efac;fill-opacity:1" />
				</g>
				<g
   id="g79"
   style="fill:#77efac;fill-opacity:1">
					<path
   class="st1"
   d="m 276.7,436.3 c -4.5,0 -8.2,-3.7 -8.2,-8.2 0,-4.5 3.7,-8.2 8.2,-8.2 4.5,0 8.2,3.7 8.2,8.2 0.1,4.5 -3.6,8.2 -8.2,8.2 z m 0,-14.9 c -3.7,0 -6.7,3 -6.7,6.7 0,3.7 3,6.7 6.7,6.7 3.7,0 6.7,-3 6.7,-6.7 0,-3.7 -3,-6.7 -6.7,-6.7 z"
   id="path78"
   style="fill:#77efac;fill-opacity:1" />
				</g>
				<g
   id="g80"
   style="fill:#77efac;fill-opacity:1">
					<path
   class="st1"
   d="m 295.1,436.3 c -4.5,0 -8.2,-3.7 -8.2,-8.2 0,-4.5 3.7,-8.2 8.2,-8.2 4.5,0 8.2,3.7 8.2,8.2 0.1,4.5 -3.6,8.2 -8.2,8.2 z m 0,-14.9 c -3.7,0 -6.7,3 -6.7,6.7 0,3.7 3,6.7 6.7,6.7 3.7,0 6.7,-3 6.7,-6.7 0,-3.7 -3,-6.7 -6.7,-6.7 z"
   id="path79"
   style="fill:#77efac;fill-opacity:1" />
				</g>
				<g
   id="g81"
   style="fill:#77efac;fill-opacity:1">
					<path
   class="st1"
   d="m 313.6,381 c -4.5,0 -8.2,-3.7 -8.2,-8.2 0,-4.5 3.7,-8.2 8.2,-8.2 4.5,0 8.2,3.7 8.2,8.2 0,4.5 -3.7,8.2 -8.2,8.2 z m 0,-14.9 c -3.7,0 -6.7,3 -6.7,6.7 0,3.7 3,6.7 6.7,6.7 3.7,0 6.7,-3 6.7,-6.7 0,-3.7 -3.1,-6.7 -6.7,-6.7 z"
   id="path80"
   style="fill:#77efac;fill-opacity:1" />
				</g>
				<g
   id="g82"
   style="fill:#77efac;fill-opacity:1">
					<path
   class="st1"
   d="m 313.6,399.4 c -4.5,0 -8.2,-3.7 -8.2,-8.2 0,-4.5 3.7,-8.2 8.2,-8.2 4.5,0 8.2,3.7 8.2,8.2 0,4.5 -3.7,8.2 -8.2,8.2 z m 0,-14.9 c -3.7,0 -6.7,3 -6.7,6.7 0,3.7 3,6.7 6.7,6.7 3.7,0 6.7,-3 6.7,-6.7 -0.1,-3.7 -3.1,-6.7 -6.7,-6.7 z"
   id="path81"
   style="fill:#77efac;fill-opacity:1" />
				</g>
				<g
   id="g83"
   style="fill:#77efac;fill-opacity:1">
					<path
   class="st1"
   d="m 276.7,381 c -4.5,0 -8.2,-3.7 -8.2,-8.2 0,-4.5 3.7,-8.2 8.2,-8.2 4.5,0 8.2,3.7 8.2,8.2 0,4.5 -3.6,8.2 -8.2,8.2 z m 0,-14.9 c -3.7,0 -6.7,3 -6.7,6.7 0,3.7 3,6.7 6.7,6.7 3.7,0 6.7,-3 6.7,-6.7 0,-3.7 -3,-6.7 -6.7,-6.7 z"
   id="path82"
   style="fill:#77efac;fill-opacity:1" />
				</g>
			</g>
		</g>
		<g
   id="g87"
   style="fill:#77efac;fill-opacity:1">
			<g
   id="g86"
   style="fill:#77efac;fill-opacity:1">
				<path
   class="st1"
   d="m 239.9,380.9 c -4.5,0 -8.1,-3.6 -8.1,-8.1 0,-4.5 3.6,-8.1 8.1,-8.1 4.5,0 8.1,3.6 8.1,8.1 0,4.5 -3.7,8.1 -8.1,8.1 z"
   id="path85"
   style="fill:#77efac;fill-opacity:1" />
			</g>
		</g>
		<g
   id="g89"
   style="fill:#77efac;fill-opacity:1">
			<g
   id="g88"
   style="fill:#77efac;fill-opacity:1">
				<path
   class="st1"
   d="m 295.1,362.4 c -4.5,0 -8.1,-3.6 -8.1,-8.1 0,-4.5 3.6,-8.1 8.1,-8.1 4.5,0 8.1,3.6 8.1,8.1 0,4.5 -3.6,8.1 -8.1,8.1 z"
   id="path87"
   style="fill:#77efac;fill-opacity:1" />
			</g>
		</g>
		<g
   id="g91"
   style="fill:#77efac;fill-opacity:1">
			<g
   id="g90"
   style="fill:#77efac;fill-opacity:1">
				<path
   class="st1"
   d="m 258.3,436.1 c -4.5,0 -8.1,-3.6 -8.1,-8.1 0,-4.5 3.6,-8.1 8.1,-8.1 4.5,0 8.1,3.6 8.1,8.1 0,4.5 -3.6,8.1 -8.1,8.1 z"
   id="path89"
   style="fill:#77efac;fill-opacity:1" />
			</g>
		</g>
		<g
   id="g93"
   style="fill:#86e17e;fill-opacity:1;opacity:1">
			<g
   id="g92"
   style="fill:#77efac;fill-opacity:1">
				<path
   class="st1"
   d="m 313.6,417.7 c -4.5,0 -8.1,-3.6 -8.1,-8.1 0,-4.5 3.6,-8.1 8.1,-8.1 4.5,0 8.1,3.6 8.1,8.1 0,4.5 -3.7,8.1 -8.1,8.1 z"
   id="path91"
   style="fill:#77efac;fill-opacity:1" />
			</g>
		</g>
		<g
   id="g94"
   style="fill:#d21c37;fill-opacity:1">
			<circle
   class="st3"
   cx="295.10001"
   cy="391.20001"
   r="5.0999999"
   id="circle93"
   style="fill:#d21c37;fill-opacity:1" />
		</g>
	</g>
</g>
<style
   type="text/css"
   id="style1-9">
	.st0{fill:#FFFFFF;}
	.st1{fill:#00236E;}
	.st2{fill:#00246F;}
	.st3{fill:#D21C37;}
</style><style
   type="text/css"
   id="style1-3">
	.st0{fill:#FFFFFF;}
	.st1{fill:#00236E;}
	.st2{fill:#00246F;}
	.st3{fill:#D21C37;}
</style></svg>
